<?xml version="1.0" encoding="UTF-8" standalone="no"?>
<svg
   xmlns:dc="http://purl.org/dc/elements/1.1/"
   xmlns:cc="http://creativecommons.org/ns#"
   xmlns:rdf="http://www.w3.org/1999/02/22-rdf-syntax-ns#"
   xmlns:svg="http://www.w3.org/2000/svg"
   xmlns="http://www.w3.org/2000/svg"
   xmlns:sodipodi="http://sodipodi.sourceforge.net/DTD/sodipodi-0.dtd"
   xmlns:inkscape="http://www.inkscape.org/namespaces/inkscape"
   inkscape:version="1.0 (4035a4f, 2020-05-01)"
   sodipodi:docname="3DPrinterOFF.svg"
   version="1.1"
   width="512"
   viewBox="0 0 512 512"
   height="512"
   enable-background="new 0 0 512 512"
   id="Capa_1">
  <metadata
     id="metadata858">
    <rdf:RDF>
      <cc:Work
         rdf:about="">
        <dc:format>image/svg+xml</dc:format>
        <dc:type
           rdf:resource="http://purl.org/dc/dcmitype/StillImage" />
      </cc:Work>
    </rdf:RDF>
  </metadata>
  <defs
     id="defs856" />
  <sodipodi:namedview
     inkscape:current-layer="Capa_1"
     inkscape:window-maximized="0"
     inkscape:window-y="416"
     inkscape:window-x="211"
     inkscape:cy="211.18207"
     inkscape:cx="90.570599"
     inkscape:zoom="0.64264871"
     showgrid="false"
     id="namedview854"
     inkscape:window-height="643"
     inkscape:window-width="1010"
     inkscape:pageshadow="2"
     inkscape:pageopacity="0"
     guidetolerance="10"
     gridtolerance="10"
     objecttolerance="10"
     borderopacity="1"
     bordercolor="#666666"
     pagecolor="#ffffff" />
  <g
     style="fill:#a94444;fill-opacity:1"
     id="g851">
    <path
       style="fill:#a94444;fill-opacity:1"
       id="path843"
       d="m318.264 49.283c0-11.046-8.987-20.033-20.033-20.033s-20.033 8.987-20.033 20.033 8.987 20.033 20.033 20.033 20.033-8.986 20.033-20.033zm-25.067 0c0-2.775 2.258-5.033 5.033-5.033s5.033 2.258 5.033 5.033-2.258 5.033-5.033 5.033-5.033-2.257-5.033-5.033z" />
    <path
       style="fill:#a94444;fill-opacity:1"
       id="path845"
       d="m201.236 71.066h62.654c4.143 0 7.5-3.358 7.5-7.5v-28.566c0-4.142-3.357-7.5-7.5-7.5h-62.654c-4.142 0-7.5 3.358-7.5 7.5v28.566c0 4.142 3.358 7.5 7.5 7.5zm7.5-28.566h47.654v13.566h-47.654z" />
    <path
       style="fill:#a94444;fill-opacity:1"
       id="path847"
       d="m466.215 0h-420.43c-12.407 0-22.5 10.093-22.5 22.5v75.289c0 4.142 3.358 7.5 7.5 7.5s7.5-3.358 7.5-7.5v-75.289c0-4.136 3.365-7.5 7.5-7.5h420.43c4.136 0 7.5 3.364 7.5 7.5v467c0 4.136-3.364 7.5-7.5 7.5h-24.091c-2.955 0-5.644-1.744-6.848-4.442l-9.025-20.209c-3.615-8.096-11.679-13.326-20.545-13.326h-299.412c-8.866 0-16.931 5.23-20.545 13.326l-9.024 20.21c-1.205 2.697-3.893 4.441-6.849 4.441h-24.091c-4.135 0-7.5-3.364-7.5-7.5v-361.711c0-4.142-3.358-7.5-7.5-7.5s-7.5 3.358-7.5 7.5v361.711c0 12.407 10.093 22.5 22.5 22.5h24.091c8.866 0 16.93-5.23 20.545-13.326l9.024-20.21c1.205-2.698 3.893-4.441 6.849-4.441h299.412c2.955 0 5.644 1.744 6.848 4.442l9.025 20.21c3.615 8.095 11.68 13.326 20.545 13.326h24.091c12.406 0 22.5-10.093 22.5-22.5v-467c0-12.408-10.094-22.501-22.5-22.501z" />
    <path
       style="fill:#a94444;fill-opacity:1"
       id="path849"
       d="m188.66 73.95-4.972-14.388c-3.132-9.062-11.678-15.151-21.266-15.151h-72.226c-12.407 0-22.5 10.093-22.5 22.5v340.2c0 12.407 10.093 22.5 22.5 22.5h331.607c12.406 0 22.5-10.093 22.5-22.5v-340.2c0-12.407-10.094-22.5-22.5-22.5h-72.226c-9.587 0-18.133 6.088-21.267 15.151l-4.97 14.388c-1.044 3.021-3.893 5.05-7.088 5.05h-120.503c-3.196 0-6.045-2.029-7.089-5.05zm-98.464-14.539h32.637v91.129c0 16.887 13.739 30.626 30.626 30.626h7.081c16.887 0 30.626-13.739 30.626-30.626v-7.029c0-8.277 6.734-15.011 15.011-15.011h28.138c8.277 0 15.011 6.734 15.011 15.011v2.843c-11.662 2.262-20.985 11.153-23.871 22.583h-.833c-6.893 0-12.5 5.607-12.5 12.5v12.773h-129.426v-127.299c0-4.136 3.365-7.5 7.5-7.5zm194.681 124.526v39.565h-57.754v-39.565zm-33.772 54.565h9.789v25.209c0 1.073-.873 1.947-1.947 1.947h-5.895c-1.073 0-1.947-.874-1.947-1.947zm-9.661-69.565c2.661-4.851 7.816-8.149 13.729-8.149h1.654c5.913 0 11.068 3.298 13.729 8.149zm180.36 245.674h-158.304v-19.017h84.119c9.649 0 17.5-7.851 17.5-17.5v-13.562c0-9.649-7.851-17.5-17.5-17.5h-183.238c-9.649 0-17.5 7.851-17.5 17.5v13.562c0 9.649 7.851 17.5 17.5 17.5h84.119v19.017h-158.304c-4.136 0-7.5-3.364-7.5-7.5v-197.901h129.427v16.792c0 6.893 5.607 12.5 12.5 12.5h11.482v25.209c0 9.344 7.602 16.947 16.947 16.947h5.895c9.345 0 16.947-7.603 16.947-16.947v-25.209h11.482c6.893 0 12.5-5.607 12.5-12.5v-16.792h129.427v197.901c.001 4.136-3.364 7.5-7.499 7.5zm-257.423-34.017c-1.378 0-2.5-1.122-2.5-2.5v-13.562c0-1.378 1.122-2.5 2.5-2.5h183.238c1.379 0 2.5 1.122 2.5 2.5v13.562c0 1.378-1.121 2.5-2.5 2.5zm151.871-286.594c9.588 0 18.134-6.089 21.266-15.151l4.971-14.387c1.045-3.021 3.894-5.051 7.09-5.051h72.226c4.136 0 7.5 3.364 7.5 7.5v127.299h-129.428v-12.773c0-6.893-5.607-12.5-12.5-12.5h-.833c-2.748-10.885-11.333-19.469-22.217-22.217v-3.208c0-16.548-13.463-30.011-30.011-30.011h-28.138c-16.548 0-30.011 13.463-30.011 30.011v7.029c0 8.616-7.01 15.626-15.626 15.626h-7.081c-8.616 0-15.626-7.01-15.626-15.626v-91.13h24.588c3.196 0 6.045 2.029 7.089 5.05l4.972 14.388c3.131 9.062 11.677 15.151 21.266 15.151z" />
  </g>
</svg>
