<?xml version="1.0" encoding="UTF-8" standalone="no"?>
<svg
   xmlns:dc="http://purl.org/dc/elements/1.1/"
   xmlns:cc="http://creativecommons.org/ns#"
   xmlns:rdf="http://www.w3.org/1999/02/22-rdf-syntax-ns#"
   xmlns:svg="http://www.w3.org/2000/svg"
   xmlns="http://www.w3.org/2000/svg"
   xmlns:sodipodi="http://sodipodi.sourceforge.net/DTD/sodipodi-0.dtd"
   xmlns:inkscape="http://www.inkscape.org/namespaces/inkscape"
   width="512"
   height="512"
   viewBox="0 0 512 512"
   version="1.1"
   id="svg855"
   sodipodi:docname="condizionatore_dry.svg"
   inkscape:version="1.0 (4035a4f, 2020-05-01)">
  <metadata
     id="metadata861">
    <rdf:RDF>
      <cc:Work
         rdf:about="">
        <dc:format>image/svg+xml</dc:format>
        <dc:type
           rdf:resource="http://purl.org/dc/dcmitype/StillImage" />
      </cc:Work>
    </rdf:RDF>
  </metadata>
  <defs
     id="defs859" />
  <sodipodi:namedview
     inkscape:document-rotation="0"
     pagecolor="#ffffff"
     bordercolor="#666666"
     borderopacity="1"
     objecttolerance="10"
     gridtolerance="10"
     guidetolerance="10"
     inkscape:pageopacity="0"
     inkscape:pageshadow="2"
     inkscape:window-width="874"
     inkscape:window-height="720"
     id="namedview857"
     showgrid="false"
     inkscape:zoom="1.3300781"
     inkscape:cx="96.234946"
     inkscape:cy="256"
     inkscape:window-x="0"
     inkscape:window-y="23"
     inkscape:window-maximized="0"
     inkscape:current-layer="svg855" />
  <g
     id="g853"
     style="fill:#f2f29e;fill-opacity:1">
    <path
       d="M472,96H40A32.03,32.03,0,0,0,8,128V304a32.03,32.03,0,0,0,32,32H472a32.03,32.03,0,0,0,32-32V128A32.03,32.03,0,0,0,472,96Zm16,208a16.021,16.021,0,0,1-16,16H40a16.021,16.021,0,0,1-16-16V128a16.021,16.021,0,0,1,16-16H472a16.021,16.021,0,0,1,16,16Z"
       id="path833"
       style="fill:#f2f29e;fill-opacity:1" />
    <path
       d="M440,256H72a8,8,0,0,0-8,8v32a8,8,0,0,0,8,8H440a8,8,0,0,0,8-8V264A8,8,0,0,0,440,256ZM200,272h48v16H200Zm-16,16H136V272h48Zm80-16h48v16H264Zm64,0h48v16H328ZM80,272h40v16H80Zm352,16H392V272h40Z"
       id="path835"
       style="fill:#f2f29e;fill-opacity:1" />
    <path
       d="M168,168V136a8,8,0,0,0-8-8H48a8,8,0,0,0-8,8v32a8,8,0,0,0,8,8H160A8,8,0,0,0,168,168Zm-16-8H56V144h96Z"
       id="path837"
       style="fill:#f2f29e;fill-opacity:1" />
    <path
       d="M464,128H416a8,8,0,0,0,0,16h48a8,8,0,0,0,0-16Z"
       id="path839"
       style="fill:#f2f29e;fill-opacity:1" />
    <path
       d="M464,152H440a8,8,0,0,0,0,16h24a8,8,0,0,0,0-16Z"
       id="path841"
       style="fill:#f2f29e;fill-opacity:1" />
    <path
       d="M268,360a8,8,0,0,0-16,0c0,.608,0,.687-1.657,2.344C247.971,364.716,244,368.687,244,376s3.971,11.284,6.343,13.657C252,391.315,252,391.393,252,392s0,.687-1.657,2.343C247.971,396.716,244,400.687,244,408a8,8,0,0,0,16,0c0-.607,0-.686,1.657-2.342C264.029,403.286,268,399.315,268,392s-3.971-11.284-6.343-13.657C260,376.688,260,376.609,260,376s0-.687,1.657-2.344C264.029,371.285,268,367.314,268,360Z"
       id="path843"
       style="fill:#f2f29e;fill-opacity:1" />
    <path
       d="M208,360a8,8,0,0,0-16,0c0,.608,0,.687-1.657,2.344C187.971,364.716,184,368.687,184,376s3.971,11.284,6.343,13.657C192,391.315,192,391.393,192,392s0,.687-1.657,2.343C187.971,396.716,184,400.687,184,408a8,8,0,0,0,16,0c0-.607,0-.686,1.657-2.342C204.029,403.286,208,399.315,208,392s-3.971-11.284-6.343-13.657C200,376.688,200,376.609,200,376s0-.687,1.657-2.344C204.029,371.285,208,367.314,208,360Z"
       id="path845"
       style="fill:#f2f29e;fill-opacity:1" />
    <path
       d="M144,360a8,8,0,0,0-16,0c0,.608,0,.687-1.657,2.344C123.971,364.716,120,368.687,120,376s3.971,11.284,6.343,13.657C128,391.315,128,391.393,128,392s0,.687-1.657,2.343C123.971,396.716,120,400.687,120,408a8,8,0,0,0,16,0c0-.607,0-.686,1.657-2.342C140.029,403.286,144,399.315,144,392s-3.971-11.284-6.343-13.657C136,376.688,136,376.609,136,376s0-.687,1.657-2.344C140.029,371.285,144,367.314,144,360Z"
       id="path847"
       style="fill:#f2f29e;fill-opacity:1" />
    <path
       d="M400,360a8,8,0,0,0-16,0c0,.608,0,.687-1.657,2.344C379.971,364.716,376,368.687,376,376s3.971,11.284,6.343,13.657C384,391.315,384,391.393,384,392s0,.687-1.657,2.343C379.971,396.716,376,400.687,376,408a8,8,0,0,0,16,0c0-.607,0-.686,1.657-2.342C396.029,403.286,400,399.315,400,392s-3.971-11.284-6.343-13.657C392,376.688,392,376.609,392,376s0-.687,1.657-2.344C396.029,371.285,400,367.314,400,360Z"
       id="path849"
       style="fill:#f2f29e;fill-opacity:1" />
    <path
       d="M336,360a8,8,0,0,0-16,0c0,.608,0,.687-1.657,2.344C315.971,364.716,312,368.687,312,376s3.971,11.284,6.343,13.657C320,391.315,320,391.393,320,392s0,.687-1.657,2.343C315.971,396.716,312,400.687,312,408a8,8,0,0,0,16,0c0-.607,0-.686,1.657-2.342C332.029,403.286,336,399.315,336,392s-3.971-11.284-6.343-13.657C328,376.688,328,376.609,328,376s0-.687,1.657-2.344C332.029,371.285,336,367.314,336,360Z"
       id="path851"
       style="fill:#f2f29e;fill-opacity:1" />
  </g>
</svg>
