<?xml version="1.0" encoding="UTF-8" standalone="no"?>
<svg
   xmlns:dc="http://purl.org/dc/elements/1.1/"
   xmlns:cc="http://creativecommons.org/ns#"
   xmlns:rdf="http://www.w3.org/1999/02/22-rdf-syntax-ns#"
   xmlns:svg="http://www.w3.org/2000/svg"
   xmlns="http://www.w3.org/2000/svg"
   xmlns:sodipodi="http://sodipodi.sourceforge.net/DTD/sodipodi-0.dtd"
   xmlns:inkscape="http://www.inkscape.org/namespaces/inkscape"
   width="512"
   height="512"
   viewBox="0 0 512 512"
   version="1.1"
   id="svg885"
   sodipodi:docname="condizionatore_cool.svg"
   inkscape:version="1.0 (4035a4f, 2020-05-01)">
  <metadata
     id="metadata891">
    <rdf:RDF>
      <cc:Work
         rdf:about="">
        <dc:format>image/svg+xml</dc:format>
        <dc:type
           rdf:resource="http://purl.org/dc/dcmitype/StillImage" />
      </cc:Work>
    </rdf:RDF>
  </metadata>
  <defs
     id="defs889" />
  <sodipodi:namedview
     inkscape:document-rotation="0"
     pagecolor="#ffffff"
     bordercolor="#666666"
     borderopacity="1"
     objecttolerance="10"
     gridtolerance="10"
     guidetolerance="10"
     inkscape:pageopacity="0"
     inkscape:pageshadow="2"
     inkscape:window-width="1440"
     inkscape:window-height="807"
     id="namedview887"
     showgrid="false"
     inkscape:zoom="1.3300781"
     inkscape:cx="256"
     inkscape:cy="256"
     inkscape:window-x="0"
     inkscape:window-y="23"
     inkscape:window-maximized="1"
     inkscape:current-layer="svg885" />
  <g
     id="g883"
     style="fill:#00adee;fill-opacity:1">
    <path
       d="M 472,96 H 40 A 32.03,32.03 0 0 0 8,128 v 176 a 32.03,32.03 0 0 0 32,32 h 432 a 32.03,32.03 0 0 0 32,-32 V 128 A 32.03,32.03 0 0 0 472,96 Z m 16,208 a 16.021,16.021 0 0 1 -16,16 H 40 A 16.021,16.021 0 0 1 24,304 V 128 a 16.021,16.021 0 0 1 16,-16 h 432 a 16.021,16.021 0 0 1 16,16 z"
       id="path863"
       style="fill:#00adee;fill-opacity:1" />
    <path
       d="M 440,256 H 72 a 8,8 0 0 0 -8,8 v 32 a 8,8 0 0 0 8,8 h 368 a 8,8 0 0 0 8,-8 v -32 a 8,8 0 0 0 -8,-8 z m -240,16 h 48 v 16 h -48 z m -16,16 h -48 v -16 h 48 z m 80,-16 h 48 v 16 h -48 z m 64,0 h 48 v 16 h -48 z m -248,0 h 40 v 16 H 80 Z m 352,16 h -40 v -16 h 40 z"
       id="path865"
       style="fill:#00adee;fill-opacity:1" />
    <path
       d="m 168,168 v -32 a 8,8 0 0 0 -8,-8 H 48 a 8,8 0 0 0 -8,8 v 32 a 8,8 0 0 0 8,8 h 112 a 8,8 0 0 0 8,-8 z m -16,-8 H 56 v -16 h 96 z"
       id="path867"
       style="fill:#00adee;fill-opacity:1" />
    <path
       d="m 464,128 h -48 a 8,8 0 0 0 0,16 h 48 a 8,8 0 0 0 0,-16 z"
       id="path869"
       style="fill:#00adee;fill-opacity:1" />
    <path
       d="m 464,152 h -24 a 8,8 0 0 0 0,16 h 24 a 8,8 0 0 0 0,-16 z"
       id="path871"
       style="fill:#00adee;fill-opacity:1" />
    <path
       d="m 268,360 a 8,8 0 0 0 -16,0 c 0,0.608 0,0.687 -1.657,2.344 -2.372,2.372 -6.343,6.343 -6.343,13.656 0,7.313 3.971,11.284 6.343,13.657 1.657,1.658 1.657,1.736 1.657,2.343 0,0.607 0,0.687 -1.657,2.343 C 247.971,396.716 244,400.687 244,408 a 8,8 0 0 0 16,0 c 0,-0.607 0,-0.686 1.657,-2.342 2.372,-2.372 6.343,-6.343 6.343,-13.658 0,-7.315 -3.971,-11.284 -6.343,-13.657 C 260,376.688 260,376.609 260,376 c 0,-0.609 0,-0.687 1.657,-2.344 C 264.029,371.285 268,367.314 268,360 Z"
       id="path873"
       style="fill:#00adee;fill-opacity:1" />
    <path
       d="m 208,360 a 8,8 0 0 0 -16,0 c 0,0.608 0,0.687 -1.657,2.344 -2.372,2.372 -6.343,6.343 -6.343,13.656 0,7.313 3.971,11.284 6.343,13.657 1.657,1.658 1.657,1.736 1.657,2.343 0,0.607 0,0.687 -1.657,2.343 C 187.971,396.716 184,400.687 184,408 a 8,8 0 0 0 16,0 c 0,-0.607 0,-0.686 1.657,-2.342 2.372,-2.372 6.343,-6.343 6.343,-13.658 0,-7.315 -3.971,-11.284 -6.343,-13.657 C 200,376.688 200,376.609 200,376 c 0,-0.609 0,-0.687 1.657,-2.344 C 204.029,371.285 208,367.314 208,360 Z"
       id="path875"
       style="fill:#00adee;fill-opacity:1" />
    <path
       d="m 144,360 a 8,8 0 0 0 -16,0 c 0,0.608 0,0.687 -1.657,2.344 -2.372,2.372 -6.343,6.343 -6.343,13.656 0,7.313 3.971,11.284 6.343,13.657 1.657,1.658 1.657,1.736 1.657,2.343 0,0.607 0,0.687 -1.657,2.343 C 123.971,396.716 120,400.687 120,408 a 8,8 0 0 0 16,0 c 0,-0.607 0,-0.686 1.657,-2.342 2.372,-2.372 6.343,-6.343 6.343,-13.658 0,-7.315 -3.971,-11.284 -6.343,-13.657 C 136,376.688 136,376.609 136,376 c 0,-0.609 0,-0.687 1.657,-2.344 C 140.029,371.285 144,367.314 144,360 Z"
       id="path877"
       style="fill:#00adee;fill-opacity:1" />
    <path
       d="m 400,360 a 8,8 0 0 0 -16,0 c 0,0.608 0,0.687 -1.657,2.344 -2.372,2.372 -6.343,6.343 -6.343,13.656 0,7.313 3.971,11.284 6.343,13.657 1.657,1.658 1.657,1.736 1.657,2.343 0,0.607 0,0.687 -1.657,2.343 C 379.971,396.716 376,400.687 376,408 a 8,8 0 0 0 16,0 c 0,-0.607 0,-0.686 1.657,-2.342 2.372,-2.372 6.343,-6.343 6.343,-13.658 0,-7.315 -3.971,-11.284 -6.343,-13.657 C 392,376.688 392,376.609 392,376 c 0,-0.609 0,-0.687 1.657,-2.344 C 396.029,371.285 400,367.314 400,360 Z"
       id="path879"
       style="fill:#00adee;fill-opacity:1" />
    <path
       d="m 336,360 a 8,8 0 0 0 -16,0 c 0,0.608 0,0.687 -1.657,2.344 -2.372,2.372 -6.343,6.343 -6.343,13.656 0,7.313 3.971,11.284 6.343,13.657 1.657,1.658 1.657,1.736 1.657,2.343 0,0.607 0,0.687 -1.657,2.343 C 315.971,396.716 312,400.687 312,408 a 8,8 0 0 0 16,0 c 0,-0.607 0,-0.686 1.657,-2.342 2.372,-2.372 6.343,-6.343 6.343,-13.658 0,-7.315 -3.971,-11.284 -6.343,-13.657 C 328,376.688 328,376.609 328,376 c 0,-0.609 0,-0.687 1.657,-2.344 C 332.029,371.285 336,367.314 336,360 Z"
       id="path881"
       style="fill:#00adee;fill-opacity:1" />
  </g>
</svg>
