<?xml version="1.0" encoding="UTF-8" standalone="no"?>
<svg
   xmlns:dc="http://purl.org/dc/elements/1.1/"
   xmlns:cc="http://creativecommons.org/ns#"
   xmlns:rdf="http://www.w3.org/1999/02/22-rdf-syntax-ns#"
   xmlns:svg="http://www.w3.org/2000/svg"
   xmlns="http://www.w3.org/2000/svg"
   xmlns:sodipodi="http://sodipodi.sourceforge.net/DTD/sodipodi-0.dtd"
   xmlns:inkscape="http://www.inkscape.org/namespaces/inkscape"
   inkscape:version="1.0 (4035a4f, 2020-05-01)"
   sodipodi:docname="robot-vacuum-cleaner_dock.svg"
   id="svg2286"
   version="1.1"
   width="512"
   viewBox="0 0 64 64"
   height="512">
  <metadata
     id="metadata2292">
    <rdf:RDF>
      <cc:Work
         rdf:about="">
        <dc:format>image/svg+xml</dc:format>
        <dc:type
           rdf:resource="http://purl.org/dc/dcmitype/StillImage" />
      </cc:Work>
    </rdf:RDF>
  </metadata>
  <defs
     id="defs2290" />
  <sodipodi:namedview
     inkscape:current-layer="g3473"
     inkscape:window-maximized="0"
     inkscape:window-y="23"
     inkscape:window-x="0"
     inkscape:cy="253.6412"
     inkscape:cx="326.65593"
     inkscape:zoom="1.2449088"
     showgrid="false"
     id="namedview2288"
     inkscape:window-height="804"
     inkscape:window-width="1238"
     inkscape:pageshadow="2"
     inkscape:pageopacity="0"
     guidetolerance="10"
     gridtolerance="10"
     objecttolerance="10"
     borderopacity="1"
     bordercolor="#666666"
     pagecolor="#ffffff"
     inkscape:document-rotation="0" />
  <g
     style="fill:#a94442;fill-opacity:1"
     id="outline">
    <path
       style="fill:#a94442;fill-opacity:1"
       id="path2273"
       d="m32 53a3 3 0 1 0 -3-3 3 3 0 0 0 3 3zm0-4a1 1 0 1 1 -1 1 1 1 0 0 1 1-1z" />
    <path
       style="fill:#a94442;fill-opacity:1"
       id="path2275"
       d="m32 45a3 3 0 0 0 3-3v-6a3 3 0 0 0 -6 0v6a3 3 0 0 0 3 3zm-1-9a1 1 0 0 1 2 0v6a1 1 0 0 1 -2 0z" />
    <path
       style="fill:#a94442;fill-opacity:1"
       id="path2277"
       d="m35 13h2v2h-2z" />
    <path
       style="fill:#a94442;fill-opacity:1"
       id="path2279"
       d="m39 13h2v2h-2z" />
    <path
       style="fill:#a94442;fill-opacity:1"
       id="path2281"
       d="m32 2a30 30 0 1 0 30 30 30.034 30.034 0 0 0 -30-30zm0 58a28 28 0 1 1 28-28 28.032 28.032 0 0 1 -28 28z" />
    <path
       style="fill:#a94442;fill-opacity:1"
       id="path2283"
       d="m32 7a25 25 0 1 0 25 25 25.028 25.028 0 0 0 -25-25zm23 25a23 23 0 1 1 -44.907-7h43.814a22.888 22.888 0 0 1 1.093 7zm-44.164-9a23 23 0 0 1 42.328 0z" />
  </g>
  <g
     style="fill:#f2f29e;fill-opacity:1"
     transform="matrix(0.04224524,0,0,0.04224524,22.203029,18.806935)"
     id="g3532">
    <g
       style="fill:#f2f29e;fill-opacity:1"
       id="g3475">
	<g
   style="fill:#f2f29e;fill-opacity:1"
   id="g3473">
		<polygon
   style="fill:#55f29e;fill-opacity:1"
   points="449.122,161.803 273.683,161.803 366.935,0 156.027,0 62.878,266.202 212.628,266.202 146.249,512 "
   id="polygon3471" />

	</g>

</g>
    <g
       style="fill:#f2f29e;fill-opacity:1"
       id="g3477">
</g>
    <g
       style="fill:#f2f29e;fill-opacity:1"
       id="g3479">
</g>
    <g
       style="fill:#f2f29e;fill-opacity:1"
       id="g3481">
</g>
    <g
       style="fill:#f2f29e;fill-opacity:1"
       id="g3483">
</g>
    <g
       style="fill:#f2f29e;fill-opacity:1"
       id="g3485">
</g>
    <g
       style="fill:#f2f29e;fill-opacity:1"
       id="g3487">
</g>
    <g
       style="fill:#f2f29e;fill-opacity:1"
       id="g3489">
</g>
    <g
       style="fill:#f2f29e;fill-opacity:1"
       id="g3491">
</g>
    <g
       style="fill:#f2f29e;fill-opacity:1"
       id="g3493">
</g>
    <g
       style="fill:#f2f29e;fill-opacity:1"
       id="g3495">
</g>
    <g
       style="fill:#f2f29e;fill-opacity:1"
       id="g3497">
</g>
    <g
       style="fill:#f2f29e;fill-opacity:1"
       id="g3499">
</g>
    <g
       style="fill:#f2f29e;fill-opacity:1"
       id="g3501">
</g>
    <g
       style="fill:#f2f29e;fill-opacity:1"
       id="g3503">
</g>
    <g
       style="fill:#f2f29e;fill-opacity:1"
       id="g3505">
</g>
  </g>
</svg>
