<?xml version="1.0" encoding="UTF-8" standalone="no"?>
<svg
   xmlns:dc="http://purl.org/dc/elements/1.1/"
   xmlns:cc="http://creativecommons.org/ns#"
   xmlns:rdf="http://www.w3.org/1999/02/22-rdf-syntax-ns#"
   xmlns:svg="http://www.w3.org/2000/svg"
   xmlns="http://www.w3.org/2000/svg"
   xmlns:sodipodi="http://sodipodi.sourceforge.net/DTD/sodipodi-0.dtd"
   xmlns:inkscape="http://www.inkscape.org/namespaces/inkscape"
   inkscape:version="1.0beta2 (2b71d25, 2019-12-03)"
   sodipodi:docname="shield.svg"
   xml:space="preserve"
   style="enable-background:new 0 0 47 47;"
   viewBox="0 0 47 47"
   height="47px"
   width="47px"
   y="0px"
   x="0px"
   id="Capa_1"
   version="1.1"><metadata
   id="metadata1173"><rdf:RDF><cc:Work
       rdf:about=""><dc:format>image/svg+xml</dc:format><dc:type
         rdf:resource="http://purl.org/dc/dcmitype/StillImage" /><dc:title></dc:title></cc:Work></rdf:RDF></metadata><defs
   id="defs1171">
	
</defs><sodipodi:namedview
   inkscape:current-layer="g1134"
   inkscape:window-maximized="0"
   inkscape:window-y="23"
   inkscape:window-x="0"
   inkscape:cy="23.5"
   inkscape:cx="44.805723"
   inkscape:zoom="7.0638298"
   showgrid="false"
   id="namedview1169"
   inkscape:window-height="686"
   inkscape:window-width="1088"
   inkscape:pageshadow="2"
   inkscape:pageopacity="0"
   guidetolerance="10"
   gridtolerance="10"
   objecttolerance="10"
   borderopacity="1"
   inkscape:document-rotation="0"
   bordercolor="#666666"
   pagecolor="#ffffff" />
<g
   id="g1134">
		<path
   style="fill:#29d9c2;fill-opacity:1"
   d="m 23.498,10.141 c -2.094,0 -3.796,1.709 -3.796,3.807 v 3.706 h 7.596 v -3.706 c 0,-2.097 -1.705,-3.807 -3.8,-3.807 z"
   id="path1130"
   inkscape:connector-curvature="0" />
		<path
   style="fill:#29d9c2;fill-opacity:1"
   d="M 3.431,0 V 23.928 C 3.431,36.67 23.5,47 23.5,47 23.5,47 43.569,36.67 43.569,23.928 V 0 Z m 30.92,30.148 c 0,1.571 -1.286,2.856 -2.855,2.856 h -15.99 c -1.57,0 -2.855,-1.285 -2.855,-2.856 v -9.64 c 0,-1.569 1.286,-2.855 2.855,-2.855 h 0.387 v -3.706 c 0,-4.198 3.413,-7.613 7.606,-7.613 4.195,0 7.609,3.415 7.609,7.613 v 3.706 h 0.388 c 1.57,0 2.855,1.286 2.855,2.855 z"
   id="path1132"
   inkscape:connector-curvature="0" />
	</g>
<g
   id="g1138">
</g>
<g
   id="g1140">
</g>
<g
   id="g1142">
</g>
<g
   id="g1144">
</g>
<g
   id="g1146">
</g>
<g
   id="g1148">
</g>
<g
   id="g1150">
</g>
<g
   id="g1152">
</g>
<g
   id="g1154">
</g>
<g
   id="g1156">
</g>
<g
   id="g1158">
</g>
<g
   id="g1160">
</g>
<g
   id="g1162">
</g>
<g
   id="g1164">
</g>
<g
   id="g1166">
</g>
</svg>
