<?xml version="1.0" encoding="UTF-8" standalone="no"?>
<svg
   xmlns:dc="http://purl.org/dc/elements/1.1/"
   xmlns:cc="http://creativecommons.org/ns#"
   xmlns:rdf="http://www.w3.org/1999/02/22-rdf-syntax-ns#"
   xmlns:svg="http://www.w3.org/2000/svg"
   xmlns="http://www.w3.org/2000/svg"
   xmlns:sodipodi="http://sodipodi.sourceforge.net/DTD/sodipodi-0.dtd"
   xmlns:inkscape="http://www.inkscape.org/namespaces/inkscape"
   inkscape:version="1.0 (4035a4f, 2020-05-01)"
   sodipodi:docname="waterON.svg"
   xml:space="preserve"
   style="enable-background:new 0 0 294.465 294.465;"
   viewBox="0 0 294.465 294.465"
   y="0px"
   x="0px"
   id="Capa_1"
   version="1.1"><metadata
   id="metadata3627"><rdf:RDF><cc:Work
       rdf:about=""><dc:format>image/svg+xml</dc:format><dc:type
         rdf:resource="http://purl.org/dc/dcmitype/StillImage" /></cc:Work></rdf:RDF></metadata><defs
   id="defs3625" /><sodipodi:namedview
   inkscape:current-layer="Capa_1"
   inkscape:window-maximized="0"
   inkscape:window-y="105"
   inkscape:window-x="110"
   inkscape:cy="145.93909"
   inkscape:cx="178.48976"
   inkscape:zoom="2.3194607"
   showgrid="false"
   id="namedview3623"
   inkscape:window-height="583"
   inkscape:window-width="967"
   inkscape:pageshadow="2"
   inkscape:pageopacity="0"
   guidetolerance="10"
   gridtolerance="10"
   objecttolerance="10"
   borderopacity="1"
   bordercolor="#666666"
   pagecolor="#ffffff" />
<g
   style="fill:#29d9c2;fill-opacity:1"
   id="g3584">
	<g
   style="fill:#29d9c2;fill-opacity:1"
   id="g3582">
		<path
   style="fill:#29d9c2;fill-opacity:1"
   id="path3580"
   d="m 174.432,32.465 c -6.8,-10 -12.8,-19.2 -18.4,-27.6 -0.8,-1.2 -2,-2.4 -3.2,-3.2 -4.8,-3.2 -11.2,-1.6 -14.4,3.2 -5.2,8.4 -11.2,17.2 -18.4,27.6 -31.6,46.4 -78.8,116.4 -78.8,156.4 0,29.2 12,55.6 31.2,74.8 19.2,18.8 45.6,30.8 74.8,30.8 29.2,0 55.6,-12 74.8,-31.2 19.2,-19.2 31.2,-45.6 31.2,-74.8 0,-40 -47.2,-109.6 -78.8,-156 z m 33.2,216.4 c -15.6,15.6 -36.8,24.8 -60.4,24.8 -23.6,0 -44.8,-9.6 -60.4,-24.8 -15.6,-15.6 -24.8,-36.8 -24.8,-60.4 0,-33.6 45.2,-100.4 75.2,-144.8 3.6,-5.2 6.8,-10.4 10,-14.8 3.2,4.4 6.4,9.6 10,14.8 30,44.8 75.2,111.2 75.2,144.8 0,23.6 -9.6,44.8 -24.8,60.4 z" />
	</g>
</g>
<g
   style="fill:#29d9c2;fill-opacity:1"
   id="g3590">
	<g
   style="fill:#29d9c2;fill-opacity:1"
   id="g3588">
		<path
   style="fill:#29d9c2;fill-opacity:1"
   id="path3586"
   d="M209.232,181.265c-5.6-0.4-10.4,4-10.8,9.6c-0.4,8.8-3.2,17.2-7.6,24.4c-4.4,7.2-10.8,13.6-18.4,17.6    c-4.8,2.8-6.8,9.2-4,14c3.2,5.6,9.6,7.2,14.4,4.4c10.8-6,19.6-14.8,25.6-24.8c6.4-10,10-22,10.4-34.4    C219.232,186.465,214.832,181.665,209.232,181.265z" />
	</g>
</g>
<g
   id="g3592">
</g>
<g
   id="g3594">
</g>
<g
   id="g3596">
</g>
<g
   id="g3598">
</g>
<g
   id="g3600">
</g>
<g
   id="g3602">
</g>
<g
   id="g3604">
</g>
<g
   id="g3606">
</g>
<g
   id="g3608">
</g>
<g
   id="g3610">
</g>
<g
   id="g3612">
</g>
<g
   id="g3614">
</g>
<g
   id="g3616">
</g>
<g
   id="g3618">
</g>
<g
   id="g3620">
</g>
</svg>
