<?xml version="1.0" encoding="UTF-8" standalone="no"?>
<svg
   xmlns:dc="http://purl.org/dc/elements/1.1/"
   xmlns:cc="http://creativecommons.org/ns#"
   xmlns:rdf="http://www.w3.org/1999/02/22-rdf-syntax-ns#"
   xmlns:svg="http://www.w3.org/2000/svg"
   xmlns="http://www.w3.org/2000/svg"
   xmlns:sodipodi="http://sodipodi.sourceforge.net/DTD/sodipodi-0.dtd"
   xmlns:inkscape="http://www.inkscape.org/namespaces/inkscape"
   inkscape:version="1.0 (4035a4f, 2020-05-01)"
   sodipodi:docname="3DPrinterON.svg"
   version="1.1"
   width="512"
   viewBox="0 0 512 512"
   height="512"
   enable-background="new 0 0 512 512"
   id="Capa_1">
  <metadata
     id="metadata36">
    <rdf:RDF>
      <cc:Work
         rdf:about="">
        <dc:format>image/svg+xml</dc:format>
        <dc:type
           rdf:resource="http://purl.org/dc/dcmitype/StillImage" />
      </cc:Work>
    </rdf:RDF>
  </metadata>
  <defs
     id="defs34" />
  <sodipodi:namedview
     inkscape:current-layer="g29"
     inkscape:window-maximized="0"
     inkscape:window-y="95"
     inkscape:window-x="455"
     inkscape:cy="256.8539"
     inkscape:cx="130.93582"
     inkscape:zoom="0.55156397"
     showgrid="false"
     id="namedview32"
     inkscape:window-height="568"
     inkscape:window-width="955"
     inkscape:pageshadow="2"
     inkscape:pageopacity="0"
     guidetolerance="10"
     gridtolerance="10"
     objecttolerance="10"
     borderopacity="1"
     bordercolor="#666666"
     pagecolor="#ffffff" />
  <g
     id="g29">
    <g
       style="fill:#29d9c2;fill-opacity:1"
       id="g865">
      <path
         style="fill:#29d9c2;fill-opacity:1"
         d="m318.264 49.283c0-11.046-8.987-20.033-20.033-20.033s-20.033 8.987-20.033 20.033 8.987 20.033 20.033 20.033 20.033-8.986 20.033-20.033zm-25.067 0c0-2.775 2.258-5.033 5.033-5.033s5.033 2.258 5.033 5.033-2.258 5.033-5.033 5.033-5.033-2.257-5.033-5.033z"
         id="path21" />
      <path
         style="fill:#29d9c2;fill-opacity:1"
         d="m201.236 71.066h62.654c4.143 0 7.5-3.358 7.5-7.5v-28.566c0-4.142-3.357-7.5-7.5-7.5h-62.654c-4.142 0-7.5 3.358-7.5 7.5v28.566c0 4.142 3.358 7.5 7.5 7.5zm7.5-28.566h47.654v13.566h-47.654z"
         id="path23" />
      <path
         style="fill:#29d9c2;fill-opacity:1"
         d="m466.215 0h-420.43c-12.407 0-22.5 10.093-22.5 22.5v75.289c0 4.142 3.358 7.5 7.5 7.5s7.5-3.358 7.5-7.5v-75.289c0-4.136 3.365-7.5 7.5-7.5h420.43c4.136 0 7.5 3.364 7.5 7.5v467c0 4.136-3.364 7.5-7.5 7.5h-24.091c-2.955 0-5.644-1.744-6.848-4.442l-9.025-20.209c-3.615-8.096-11.679-13.326-20.545-13.326h-299.412c-8.866 0-16.931 5.23-20.545 13.326l-9.024 20.21c-1.205 2.697-3.893 4.441-6.849 4.441h-24.091c-4.135 0-7.5-3.364-7.5-7.5v-361.711c0-4.142-3.358-7.5-7.5-7.5s-7.5 3.358-7.5 7.5v361.711c0 12.407 10.093 22.5 22.5 22.5h24.091c8.866 0 16.93-5.23 20.545-13.326l9.024-20.21c1.205-2.698 3.893-4.441 6.849-4.441h299.412c2.955 0 5.644 1.744 6.848 4.442l9.025 20.21c3.615 8.095 11.68 13.326 20.545 13.326h24.091c12.406 0 22.5-10.093 22.5-22.5v-467c0-12.408-10.094-22.501-22.5-22.501z"
         id="path25" />
      <path
         d="M 188.66,73.95 183.688,59.562 C 180.556,50.5 172.01,44.411 162.422,44.411 H 90.196 c -12.407,0 -22.5,10.093 -22.5,22.5 v 340.20001 c 0,12.40699 10.093,22.49999 22.5,22.49999 h 331.607 c 12.406,0 22.5,-10.093 22.5,-22.49999 V 66.911 c 0,-12.407 -10.094,-22.5 -22.5,-22.5 h -72.226 c -9.587,0 -18.133,6.088 -21.267,15.151 L 323.34,73.95 C 322.296,76.971 319.447,79 316.252,79 H 195.749 c -3.196,0 -6.045,-2.029 -7.089,-5.05 z M 90.196,59.411 h 32.637 v 91.129 c 0,16.887 13.739,30.626 30.626,30.626 h 7.081 c 16.887,0 30.626,-13.739 30.626,-30.626 v -7.029 c 0,-8.277 6.734,-15.011 15.011,-15.011 h 28.138 c 8.277,0 15.011,6.734 15.011,15.011 v 2.843 c -11.662,2.262 -20.985,11.153 -23.871,22.583 h -0.833 c -6.893,0 -12.5,5.607 -12.5,12.5 V 194.21 H 82.696 V 66.911 c 0,-4.136 3.365,-7.5 7.5,-7.5 z m 194.681,124.526 v 39.565 h -57.754 v -39.565 z m -33.772,54.565 h 9.789 v 25.209 c 0,1.073 -0.873,1.947 -1.947,1.947 h -5.895 c -1.073,0 -1.947,-0.874 -1.947,-1.947 z m -9.661,-69.565 c 2.661,-4.851 7.816,-8.149 13.729,-8.149 h 1.654 c 5.913,0 11.068,3.298 13.729,8.149 z m 180.36,245.674 H 263.5 v -19.017 h 84.119 c 9.649,0 17.5,-7.851 17.5,-17.5 v -13.562 c 0,-9.649 -7.851,-17.5 -17.5,-17.5 H 164.381 c -9.649,0 -17.5,7.851 -17.5,17.5 v 13.562 c 0,9.649 7.851,17.5 17.5,17.5 H 248.5 v 19.017 H 90.196 c -4.136,0 -7.5,-3.36399 -7.5,-7.49999 V 209.21 h 129.427 v 16.792 c 0,6.893 5.607,12.5 12.5,12.5 h 11.482 v 25.209 c 0,9.344 7.602,16.947 16.947,16.947 h 5.895 c 9.345,0 16.947,-7.603 16.947,-16.947 v -25.209 h 11.482 c 6.893,0 12.5,-5.607 12.5,-12.5 V 209.21 h 129.427 v 197.90101 c 10e-4,4.136 -3.364,7.49999 -7.499,7.49999 z M 164.381,380.594 c -1.378,0 -2.5,-1.122 -2.5,-2.5 v -13.562 c 0,-1.378 1.122,-2.5 2.5,-2.5 h 183.238 c 1.379,0 2.5,1.122 2.5,2.5 v 13.562 c 0,1.378 -1.121,2.5 -2.5,2.5 z M 316.252,94 c 9.588,0 18.134,-6.088999 21.266,-15.150999 L 342.489,64.462 c 1.045,-3.021 3.894,-5.051 7.09,-5.051 h 72.226 c 4.136,0 7.5,3.364 7.5,7.5 V 194.21 H 299.877 v -12.773 c 0,-6.893 -5.607,-12.5 -12.5,-12.5 h -0.833 c -2.748,-10.885 -11.333,-19.469 -22.217,-22.217 v -3.208 c 0,-16.548 -13.463,-30.011 -30.011,-30.011 h -28.138 c -16.548,0 -30.011,13.463 -30.011,30.011 v 7.029 c 0,8.616 -7.01,15.626 -15.626,15.626 h -7.081 c -8.616,0 -15.626,-7.01 -15.626,-15.626 v -91.13 h 24.588 c 3.196,0 6.045,2.029 7.089,5.05 l 4.972,14.388001 C 177.614,87.911001 186.16,94 195.749,94 Z"
         id="path27"
         style="stroke-width:1;fill:#29d9c2;fill-opacity:1" />
    </g>
  </g>
</svg>
