<?xml version="1.0" encoding="UTF-8" standalone="no"?>
<svg
   xmlns:dc="http://purl.org/dc/elements/1.1/"
   xmlns:cc="http://creativecommons.org/ns#"
   xmlns:rdf="http://www.w3.org/1999/02/22-rdf-syntax-ns#"
   xmlns:svg="http://www.w3.org/2000/svg"
   xmlns="http://www.w3.org/2000/svg"
   xmlns:sodipodi="http://sodipodi.sourceforge.net/DTD/sodipodi-0.dtd"
   xmlns:inkscape="http://www.inkscape.org/namespaces/inkscape"
   inkscape:version="1.0 (4035a4f, 2020-05-01)"
   sodipodi:docname="condizionatore_off.svg"
   id="svg855"
   version="1.1"
   viewBox="0 0 512 512"
   height="512"
   width="512">
  <metadata
     id="metadata861">
    <rdf:RDF>
      <cc:Work
         rdf:about="">
        <dc:format>image/svg+xml</dc:format>
        <dc:type
           rdf:resource="http://purl.org/dc/dcmitype/StillImage" />
      </cc:Work>
    </rdf:RDF>
  </metadata>
  <defs
     id="defs859" />
  <sodipodi:namedview
     inkscape:current-layer="svg855"
     inkscape:window-maximized="0"
     inkscape:window-y="23"
     inkscape:window-x="0"
     inkscape:cy="248.03082"
     inkscape:cx="246.57328"
     inkscape:zoom="0.82971156"
     showgrid="false"
     id="namedview857"
     inkscape:window-height="775"
     inkscape:window-width="1320"
     inkscape:pageshadow="2"
     inkscape:pageopacity="0"
     guidetolerance="10"
     gridtolerance="10"
     objecttolerance="10"
     borderopacity="1"
     bordercolor="#666666"
     pagecolor="#ffffff" />
  <path
     d="M 472,96 H 40 A 32.03,32.03 0 0 0 8,128 v 176 a 32.03,32.03 0 0 0 32,32 h 432 a 32.03,32.03 0 0 0 32,-32 V 128 A 32.03,32.03 0 0 0 472,96 Z m 16,208 a 16.021,16.021 0 0 1 -16,16 H 40 A 16.021,16.021 0 0 1 24,304 V 128 a 16.021,16.021 0 0 1 16,-16 h 432 a 16.021,16.021 0 0 1 16,16 z"
     id="path833" />
  <path
     d="M 440,256 H 72 a 8,8 0 0 0 -8,8 v 32 a 8,8 0 0 0 8,8 h 368 a 8,8 0 0 0 8,-8 v -32 a 8,8 0 0 0 -8,-8 z m -240,16 h 48 v 16 h -48 z m -16,16 h -48 v -16 h 48 z m 80,-16 h 48 v 16 h -48 z m 64,0 h 48 v 16 h -48 z m -248,0 h 40 v 16 H 80 Z m 352,16 h -40 v -16 h 40 z"
     id="path835" />
  <path
     d="m 168,168 v -32 a 8,8 0 0 0 -8,-8 H 48 a 8,8 0 0 0 -8,8 v 32 a 8,8 0 0 0 8,8 h 112 a 8,8 0 0 0 8,-8 z m -16,-8 H 56 v -16 h 96 z"
     id="path837" />
  <path
     d="m 464,128 h -48 a 8,8 0 0 0 0,16 h 48 a 8,8 0 0 0 0,-16 z"
     id="path839" />
  <path
     d="m 464,152 h -24 a 8,8 0 0 0 0,16 h 24 a 8,8 0 0 0 0,-16 z"
     id="path841" />
</svg>
