<?xml version="1.0" encoding="UTF-8" standalone="no"?>
<svg
   xmlns:dc="http://purl.org/dc/elements/1.1/"
   xmlns:cc="http://creativecommons.org/ns#"
   xmlns:rdf="http://www.w3.org/1999/02/22-rdf-syntax-ns#"
   xmlns:svg="http://www.w3.org/2000/svg"
   xmlns="http://www.w3.org/2000/svg"
   xmlns:sodipodi="http://sodipodi.sourceforge.net/DTD/sodipodi-0.dtd"
   xmlns:inkscape="http://www.inkscape.org/namespaces/inkscape"
   inkscape:version="1.0 (4035a4f, 2020-05-01)"
   sodipodi:docname="garden_on.svg"
   version="1.1"
   width="512"
   viewBox="0 0 508.198 508.198"
   height="512"
   enable-background="new 0 0 508.198 508.198"
   id="Capa_1">
  <metadata
     id="metadata312">
    <rdf:RDF>
      <cc:Work
         rdf:about="">
        <dc:format>image/svg+xml</dc:format>
        <dc:type
           rdf:resource="http://purl.org/dc/dcmitype/StillImage" />
      </cc:Work>
    </rdf:RDF>
  </metadata>
  <defs
     id="defs310" />
  <sodipodi:namedview
     inkscape:current-layer="Capa_1"
     inkscape:window-maximized="0"
     inkscape:window-y="23"
     inkscape:window-x="0"
     inkscape:cy="256"
     inkscape:cx="96.702782"
     inkscape:zoom="1.3339844"
     showgrid="false"
     id="namedview308"
     inkscape:window-height="480"
     inkscape:window-width="1044"
     inkscape:pageshadow="2"
     inkscape:pageopacity="0"
     guidetolerance="10"
     gridtolerance="10"
     objecttolerance="10"
     borderopacity="1"
     bordercolor="#666666"
     pagecolor="#ffffff" />
  <g
     style="fill:#a94444;fill-opacity:1"
     id="g305">
    <path
       style="fill:#a94444;fill-opacity:1"
       id="path295"
       d="m 508.031,250.253 c -1.148,-13.722 -8.14,-26.312 -19.182,-34.541 l -29.92,-22.297 V 144.21 c 0,-4.142 -3.358,-7.5 -7.5,-7.5 -4.142,0 -7.5,3.358 -7.5,7.5 v 38.027 l -15,-11.179 V 71.415 c 0,-10.69 -4.507,-21.002 -12.366,-28.292 -7.966,-7.388 -18.33,-11.001 -29.185,-10.187 -19.979,1.506 -35.629,18.685 -35.629,39.108 v 41.496 l -15,-11.178 V 71.415 c 0,-14.769 5.906,-28.536 16.629,-38.765 10.711,-10.218 24.752,-15.463 39.55,-14.764 28.599,1.349 51,25.255 51,54.425 v 39.937 c 0,4.142 3.358,7.5 7.5,7.5 4.142,0 7.5,-3.358 7.5,-7.5 V 72.311 c 0,-37.193 -28.68,-67.681 -65.293,-69.408 -18.923,-0.892 -36.903,5.817 -50.611,18.894 -13.72,13.088 -21.275,30.709 -21.275,49.619 v 19.768 l -49.144,-34.69 c -8.833,-6.232 -19.975,-7.271 -29.807,-2.78 -9.832,4.491 -16.341,13.594 -17.413,24.35 l -8.437,84.681 -22.087,23.475 c -2.838,3.017 -2.694,7.763 0.323,10.602 3.017,2.838 7.763,2.694 10.602,-0.323 l 86.264,-91.687 c 5.377,-5.714 14.176,-6.489 20.468,-1.799 L 326.43,113.381 186.824,261.76 175.619,248.627 c -5.119,-6 -4.903,-14.855 0.5,-20.599 l 7.754,-8.242 c 2.838,-3.017 2.694,-7.763 -0.323,-10.602 -3.017,-2.839 -7.764,-2.694 -10.602,0.323 l -7.754,8.242 c -10.655,11.324 -11.079,28.784 -0.987,40.612 l 58.642,68.733 H 135.46 C 131.9,306.959 114.288,291.613 93.147,291.613 H 81.075 c -7.411,0 -13.44,6.029 -13.44,13.44 v 97.655 c 0,7.411 6.029,13.44 13.44,13.44 h 12.073 c 21.141,0 38.753,-15.346 42.313,-35.481 h 133.097 l 30.116,35.298 c 8.808,10.324 21.639,16.467 35.204,16.854 0.456,0.013 0.91,0.02 1.364,0.02 13.08,0 25.677,-5.363 34.744,-14.839 L 494.858,287.5 c 9.519,-9.947 14.321,-23.524 13.173,-37.247 z M 121.129,373.169 c 0,15.429 -12.552,27.981 -27.981,27.981 H 82.634 v -94.536 h 10.513 c 15.429,0 27.981,12.552 27.981,27.981 v 38.574 z M 366.749,72.044 c 0,-12.623 9.557,-23.231 21.757,-24.15 6.641,-0.504 12.987,1.71 17.857,6.227 4.809,4.46 7.566,10.763 7.566,17.293 v 88.465 l -47.18,-35.16 z m -85.624,22.488 -47.318,50.292 6.504,-65.274 c 0.537,-5.386 3.796,-9.944 8.72,-12.194 4.922,-2.25 10.503,-1.728 14.925,1.392 l 26.796,18.908 c -3.536,1.599 -6.819,3.892 -9.627,6.876 z M 136.129,365.669 v -23.574 h 99.518 l 20.112,23.574 z m 347.891,-88.537 -124.872,130.5 c -6.455,6.746 -15.491,10.464 -24.843,10.196 -5.944,-0.17 -11.679,-1.951 -16.629,-5.053 L 441.88,282.329 c 2.856,-3 2.74,-7.747 -0.26,-10.604 -2.999,-2.855 -7.747,-2.739 -10.604,0.26 L 306.827,402.415 196.618,273.24 338.536,122.401 l 137.406,102.4 -22.862,24.011 c -2.856,3 -2.74,7.747 0.26,10.604 1.452,1.382 3.313,2.068 5.171,2.068 1.981,0 3.958,-0.78 5.433,-2.328 l 23.032,-24.189 c 3.456,4.812 5.603,10.514 6.107,16.538 0.79,9.441 -2.514,18.782 -9.063,25.627 z" />
    <path
       style="fill:#a94444;fill-opacity:1"
       id="path297"
       d="m 343.837,252.006 6.059,-6.059 c 11.709,-11.71 11.709,-30.763 0,-42.472 l -6,-6 c -2.162,-2.162 -5.037,-3.353 -8.094,-3.353 -3.057,0 -5.932,1.191 -8.094,3.353 l -8.572,8.572 c -4.613,4.613 -7.401,10.367 -8.379,16.362 -10.737,-4.232 -23.447,-2.02 -32.114,6.646 l -20.386,20.387 c -4.462,4.462 -4.463,11.724 0,16.188 l 14.857,14.857 c 5.823,5.823 13.472,8.734 21.122,8.734 7.649,0 15.298,-2.911 21.121,-8.734 l 17.874,-17.874 22.356,22.356 c 1.464,1.464 3.384,2.197 5.303,2.197 1.919,0 3.839,-0.732 5.303,-2.197 2.929,-2.929 2.929,-7.678 0,-10.606 z m -14.094,-35.353 6.059,-6.059 3.488,3.487 c 5.861,5.861 5.861,15.398 0,21.259 l -6.059,6.059 -3.488,-3.488 c -5.861,-5.861 -5.861,-15.397 0,-21.258 z M 304.75,269.88 c -5.798,5.796 -15.232,5.797 -21.03,0 l -12.344,-12.345 17.874,-17.874 c 5.797,-5.797 15.231,-5.798 21.03,0 l 12.344,12.345 z" />
    <path
       style="fill:#a94444;fill-opacity:1"
       id="path299"
       d="M 46.048,376.333 C 37.199,376.333 30,383.532 30,392.381 v 16.269 c 0,4.142 3.358,7.5 7.5,7.5 4.142,0 7.5,-3.358 7.5,-7.5 v -16.269 c 0,-0.578 0.47,-1.048 1.048,-1.048 4.142,0 7.5,-3.358 7.5,-7.5 0,-4.142 -3.358,-7.5 -7.5,-7.5 z" />
    <path
       style="fill:#a94444;fill-opacity:1"
       id="path301"
       d="m 37.5,434.381 c -4.142,0 -7.5,3.358 -7.5,7.5 v 53.425 c 0,4.142 3.358,7.5 7.5,7.5 4.142,0 7.5,-3.358 7.5,-7.5 v -53.425 c 0,-4.142 -3.358,-7.5 -7.5,-7.5 z" />
    <path
       style="fill:#a94444;fill-opacity:1"
       id="path303"
       d="M 46.048,321.881 C 20.657,321.881 0,342.538 0,367.929 v 129.945 c 0,4.142 3.358,7.5 7.5,7.5 4.142,0 7.5,-3.358 7.5,-7.5 V 367.929 c 0,-17.12 13.928,-31.048 31.048,-31.048 4.142,0 7.5,-3.358 7.5,-7.5 0,-4.142 -3.358,-7.5 -7.5,-7.5 z" />
  </g>
</svg>
