<?xml version="1.0" encoding="UTF-8" standalone="no"?>
<svg
   xmlns:dc="http://purl.org/dc/elements/1.1/"
   xmlns:cc="http://creativecommons.org/ns#"
   xmlns:rdf="http://www.w3.org/1999/02/22-rdf-syntax-ns#"
   xmlns:svg="http://www.w3.org/2000/svg"
   xmlns="http://www.w3.org/2000/svg"
   xmlns:sodipodi="http://sodipodi.sourceforge.net/DTD/sodipodi-0.dtd"
   xmlns:inkscape="http://www.inkscape.org/namespaces/inkscape"
   height="512"
   viewBox="0 0 64 64"
   width="512"
   version="1.1"
   id="svg2286"
   sodipodi:docname="robot-vacuum-cleaner_stop.svg"
   inkscape:version="1.0 (4035a4f, 2020-05-01)">
  <metadata
     id="metadata2292">
    <rdf:RDF>
      <cc:Work
         rdf:about="">
        <dc:format>image/svg+xml</dc:format>
        <dc:type
           rdf:resource="http://purl.org/dc/dcmitype/StillImage" />
      </cc:Work>
    </rdf:RDF>
  </metadata>
  <defs
     id="defs2290" />
  <sodipodi:namedview
     inkscape:document-rotation="0"
     pagecolor="#ffffff"
     bordercolor="#666666"
     borderopacity="1"
     objecttolerance="10"
     gridtolerance="10"
     guidetolerance="10"
     inkscape:pageopacity="0"
     inkscape:pageshadow="2"
     inkscape:window-width="842"
     inkscape:window-height="571"
     id="namedview2288"
     showgrid="false"
     inkscape:zoom="1.3339844"
     inkscape:cx="209.52269"
     inkscape:cy="256"
     inkscape:window-x="0"
     inkscape:window-y="23"
     inkscape:window-maximized="0"
     inkscape:current-layer="svg2286" />
  <g
     id="outline"
     style="fill:#a94442;fill-opacity:1">
    <path
       d="m32 53a3 3 0 1 0 -3-3 3 3 0 0 0 3 3zm0-4a1 1 0 1 1 -1 1 1 1 0 0 1 1-1z"
       id="path2273"
       style="fill:#a94442;fill-opacity:1" />
    <path
       d="m32 45a3 3 0 0 0 3-3v-6a3 3 0 0 0 -6 0v6a3 3 0 0 0 3 3zm-1-9a1 1 0 0 1 2 0v6a1 1 0 0 1 -2 0z"
       id="path2275"
       style="fill:#a94442;fill-opacity:1" />
    <path
       d="m35 13h2v2h-2z"
       id="path2277"
       style="fill:#a94442;fill-opacity:1" />
    <path
       d="m39 13h2v2h-2z"
       id="path2279"
       style="fill:#a94442;fill-opacity:1" />
    <path
       d="m32 2a30 30 0 1 0 30 30 30.034 30.034 0 0 0 -30-30zm0 58a28 28 0 1 1 28-28 28.032 28.032 0 0 1 -28 28z"
       id="path2281"
       style="fill:#a94442;fill-opacity:1" />
    <path
       d="m32 7a25 25 0 1 0 25 25 25.028 25.028 0 0 0 -25-25zm23 25a23 23 0 1 1 -44.907-7h43.814a22.888 22.888 0 0 1 1.093 7zm-44.164-9a23 23 0 0 1 42.328 0z"
       id="path2283"
       style="fill:#a94442;fill-opacity:1" />
  </g>
</svg>
